ply
format ascii 1.0
element vertex 14
property float x
property float y
property float z
element face 0
property list uchar int vertex_index
end_header
0.000000 0.000000 1.306563
0.000000 0.000000 0.979844
0.326460 0.000000 0.979772
-0.326543 0.000000 0.980020
-0.000003 0.326509 0.979845
-0.000003 -0.326509 0.979845
0.326454 0.326522 0.979777
0.326454 -0.326522 0.979777
-0.326561 0.326647 0.980025
-0.326561 0.326647 0.980025
-0.326561 -0.326647 0.980025
-0.326663 -0.000000 1.306651
-0.326657 -0.326614 1.306650
-0.326657 0.326614 1.306650
