ply
format ascii 1.0
element vertex 14
property float x
property float y
property float z
element face 0
property list uchar int vertex_index
end_header
0.500000 -0.000000 14141.635624
0.375000 -0.000000 14141.510624
0.499950 -0.000000 14141.385699
0.250056 -0.000000 14141.635661
0.374998 0.176764 14141.510622
0.374998 -0.176764 14141.510622
0.499946 0.176721 14141.385693
0.499946 -0.176721 14141.385693
0.250064 0.176748 14141.635666
0.250064 0.176748 14141.635666
0.250064 -0.176748 14141.635666
0.374981 -0.000000 14141.760642
0.375001 -0.176767 14141.760655
0.375001 0.176767 14141.760655
