ply
format ascii 1.0
element vertex 14
property float x
property float y
property float z
element face 0
property list uchar int vertex_index
end_header
9999.292893 -0.000000 10000.000000
9999.292893 -0.000000 10000.176777
9999.116205 -0.000000 10000.176759
9999.469657 -0.000000 10000.176710
9999.292893 0.176764 10000.176779
9999.292893 -0.176764 10000.176779
9999.116204 0.176721 10000.176766
9999.116204 -0.176721 10000.176766
9999.469655 0.176748 10000.176702
9999.469655 0.176748 10000.176702
9999.469655 -0.176748 10000.176702
9999.469696 -0.000000 10000.000000
9999.469691 -0.176767 9999.999977
9999.469691 0.176767 9999.999977
