ply
format ascii 1.0
element vertex 14
property float x
property float y
property float z
element face 0
property list uchar int vertex_index
end_header
0.000000 -0.000000 1.306563
0.231034 0.000000 1.075576
0.462019 0.000000 1.306616
0.000000 -0.000000 0.844623
0.231017 0.326650 1.075558
0.231017 -0.326650 1.075558
0.462016 0.326677 1.306612
0.462016 -0.326677 1.306612
0.000001 0.326693 0.844624
0.000001 0.326693 0.844624
0.000001 -0.326693 0.844624
-0.231025 -0.000000 1.075538
-0.231035 -0.326632 1.075513
-0.231035 0.326632 1.075513
