ply
format ascii 1.0
element vertex 1760
property float x
property float y
property float z
element face 0
property list uchar int vertex_index
end_header
0.512125 0.036822 -0.799685
-1.234373 1.365893 4.894489
1.349397 1.516349 5.640956
1.349397 1.516349 5.640956
2.417268 1.465030 5.922931
2.518238 1.444123 5.943392
1.475376 1.347537 5.668357
0.627828 -0.210124 -1.117612
0.535627 -0.090575 -1.269664
1.771068 1.140764 5.719306
1.805363 1.133691 5.722714
-0.878553 0.689017 4.926328
1.445952 0.602654 5.564735
0.408805 0.340013 4.944091
0.418347 0.185112 4.905802
0.434067 -0.176744 4.724138
1.592337 -0.601194 5.011868
-1.194165 -0.590416 4.698969
2.332466 -0.929937 5.632291
1.349855 -0.188656 -2.435772
0.574082 -0.293721 -1.568193
-1.130835 1.477183 4.944603
-0.525140 1.509619 5.119023
2.624687 1.012902 5.920557
2.467162 1.625406 5.966816
2.467162 1.625406 5.966816
-0.610509 1.376672 5.075758
0.348662 1.309626 4.908367
1.335646 1.485676 5.625994
0.494629 1.301295 4.945291
0.494629 1.301295 4.945291
0.526617 1.303290 4.959616
-0.861634 1.277762 4.997050
1.352891 1.380763 5.620627
-1.202080 1.114518 4.887959
0.616647 0.038182 1.128912
2.511371 1.297031 5.941430
23.213485 11.536719 89.734179
1.705126 1.154550 5.706843
1.774454 1.135123 5.730041
2.224351 1.135331 5.837226
2.186417 1.071533 5.809134
1.226526 0.998231 5.542422
1.090758 0.977628 5.505826
1.090758 0.977628 5.505826
2.539101 1.030302 5.909614
1.748115 0.965707 5.696984
1.630258 0.951164 5.653654
1.812385 0.941307 5.710719
-1.178539 0.698748 4.831498
1.509153 0.763764 5.590824
1.943420 0.750455 5.730064
-0.824711 0.619695 4.936104
0.616773 -0.029155 1.179702
1.493061 0.609702 5.575047
1.705793 0.588016 5.637027
1.380147 0.578461 5.543244
2.102899 0.582023 5.733844
0.616740 -0.041965 1.187328
1.706548 0.451996 5.605213
0.395907 0.347588 4.939265
2.385319 0.406167 5.808637
1.417795 0.278563 5.516009
2.146515 0.254944 5.704903
0.523326 0.110692 4.956196
0.430683 0.097247 4.863453
2.053666 0.108233 5.676141
2.076381 0.108039 5.676403
2.076381 0.108039 5.676403
2.338234 0.099523 5.748649
1.511250 0.076080 5.127011
0.617618 -0.088626 1.207043
0.416049 0.053800 4.856470
1.327561 0.158405 3.782849
0.394593 0.019013 4.851764
0.617639 -0.102179 1.211797
0.354864 -0.052968 4.933718
0.617900 -0.106409 1.212468
0.636098 -0.084856 -1.166865
0.285626 -0.213175 4.789291
0.240153 -0.213621 4.782055
2.267191 -0.285608 5.699958
2.070289 -0.521470 5.613664
2.266879 -0.531354 5.672900
-1.112772 -0.513024 4.736485
2.261124 -0.705572 5.653149
2.301434 -0.931089 5.631319
2.301434 -0.931089 5.631319
2.301434 -0.931089 5.631319
1.619561 -0.049393 -3.361826
1.879793 -0.150902 -3.189104
2.157209 -1.249983 4.684596
-2.819889 -2.959905 8.968693
-2.819889 -2.959905 8.968693
0.426400 0.007678 -0.917587
0.544491 -0.232558 -1.034802
0.985302 -0.140494 -1.687978
2.672128 1.704184 6.252364
0.574082 -0.293721 -1.568193
-1.251643 1.521104 4.919103
-0.511354 1.525845 5.129525
-1.066472 1.437213 4.954000
-0.555548 1.440042 5.093346
1.633058 1.603850 5.726584
1.623391 1.599121 5.735955
1.046130 1.535668 5.550883
1.091673 1.538059 5.567922
2.358251 1.628468 5.916102
-0.666680 1.388160 5.055634
0.312117 1.312218 4.894793
2.293153 1.584236 5.902846
-0.684044 1.335004 5.049019
-0.684044 1.335004 5.049019
1.233063 1.473049 5.595494
1.638729 1.501309 5.716095
-0.850889 1.291960 5.008544
0.737096 1.282766 4.985322
-1.034543 1.274582 4.957753
-1.034543 1.274582 4.957753
-0.806743 1.281673 5.004797
-0.753507 1.284803 5.037121
-0.753507 1.284803 5.037121
-0.769947 1.270660 5.025266
2.073376 1.469017 5.831286
2.602025 1.448245 5.977514
1.501095 1.353455 5.656774
-0.555417 1.164914 5.064560
0.346979 -0.491676 -3.199668
2.300416 1.308545 5.870317
2.321595 1.305911 5.870212
2.355188 1.297385 5.884741
2.604268 1.294704 5.952091
-0.728869 1.079313 5.008592
-0.717376 1.045416 5.005482
-0.934902 1.027946 4.937894
0.400144 0.185430 1.440501
-1.170567 0.958057 4.876205
-1.112101 0.950606 4.899110
-1.133330 0.935595 4.891442
-1.207331 0.926318 4.861147
1.276500 1.052579 5.568249
0.082757 0.902103 4.801807
-0.867954 0.928240 4.955193
2.231944 1.066233 5.823423
-0.814292 0.901152 4.978248
-0.814292 0.901152 4.978248
-10.970865 -7.076775 -48.174174
2.466219 1.053115 5.894184
2.521434 1.040453 5.903257
2.521434 1.040453 5.903257
1.273630 0.978440 5.555015
1.257534 0.972185 5.555100
1.796771 0.995497 5.701381
0.705455 0.864755 4.983697
0.738815 0.851500 4.976867
-0.864555 0.846238 4.946683
1.832824 0.954489 5.716480
1.590924 0.549589 4.585399
-0.635883 0.807058 4.996152
-0.721563 0.799457 4.987358
1.383869 0.019012 -2.673079
1.618606 -0.087929 -4.237365
-1.151361 0.700156 4.857024
-1.151361 0.700156 4.857024
-1.139532 0.686489 4.866947
2.607054 0.830973 5.892813
-0.675216 0.685614 4.980260
-0.629116 0.687703 5.001686
-0.629116 0.687703 5.001686
1.310506 0.757263 5.530606
1.310506 0.757263 5.530606
2.185307 0.769577 5.776657
0.410622 0.656503 4.972219
0.410622 0.656503 4.972219
1.050541 0.674749 5.177741
1.655386 0.837348 4.379330
-1.141986 0.604548 4.847726
1.814850 0.584594 5.658500
1.735100 0.578263 5.632470
1.811954 0.574449 5.662283
2.022407 0.578726 5.717663
2.233631 0.582738 5.770794
1.941621 0.568451 5.699472
0.954712 0.507827 5.216193
0.944385 0.509650 5.232199
0.949519 0.498271 5.218881
0.949519 0.498271 5.218881
0.616606 -0.040429 1.186803
1.655422 0.458742 5.617914
0.434792 0.349932 4.954370
0.446014 0.341465 4.959166
0.423532 0.340967 4.948310
1.508356 0.299787 5.540370
1.687321 0.294211 5.581073
1.810671 0.290801 5.631310
1.643822 0.287465 5.570737
1.477209 0.285221 5.528929
2.935900 -0.874627 8.047105
0.380447 0.225083 4.972707
1.893551 0.132281 5.054902
0.482908 0.225168 4.966822
1.078616 0.269642 2.551600
0.497651 0.210421 4.970328
0.509781 0.192687 4.965321
0.518407 0.175071 4.961409
0.769136 0.163169 5.037342
0.523505 0.148981 4.978514
0.442652 0.141101 4.879573
0.525193 0.140209 4.957491
0.461523 0.127063 4.873194
0.461523 0.127063 4.873194
-1.213104 0.105590 4.771105
0.518030 0.092561 4.956978
0.508194 0.127993 1.284727
2.158806 0.103695 5.687659
0.323132 0.086438 4.915933
0.512747 0.076992 4.957664
0.406720 0.041867 4.849855
0.406720 0.041867 4.849855
0.382592 0.033588 4.855623
0.306673 -0.018015 4.964789
0.336740 -0.038965 4.930436
0.617639 -0.102179 1.211797
0.370050 -0.044302 4.921916
0.354282 -0.044237 4.925840
2.009138 -0.083188 5.642931
2.009138 -0.083188 5.642931
2.191892 -0.090589 5.692720
-0.260116 -0.080316 4.769342
-0.249736 -0.086281 4.768882
-0.268720 -0.087052 4.768833
-0.278544 -0.104620 4.759580
0.998308 -0.120659 5.125042
0.998308 -0.120659 5.125042
0.416959 -0.117914 4.763980
1.001706 -0.132417 5.132932
1.001706 -0.132417 5.132932
0.421974 -0.129595 4.761942
0.354200 -0.132245 4.778936
0.998176 -0.142043 5.124180
0.350748 -0.147355 4.778797
0.437481 -0.159363 4.724139
0.437481 -0.159363 4.724139
-1.218014 -0.160337 4.744236
0.410684 -0.163621 4.731066
0.306029 -0.198010 4.810444
1.955259 -0.237114 5.605258
1.955259 -0.237114 5.605258
1.166446 -0.229768 5.186761
2.517962 -0.292630 5.753790
2.517962 -0.292630 5.753790
2.517962 -0.292630 5.753790
0.255496 -0.248771 4.777019
0.570337 0.001310 -1.292923
0.749785 0.266723 -1.631987
-4.836360 -2.250377 13.397031
1.906204 -0.387182 5.592093
1.135535 0.228901 2.626907
2.305904 -0.412598 5.693316
2.429662 -0.490578 5.697950
2.429662 -0.490578 5.697950
1.905725 -0.501266 5.578597
1.881978 -0.510432 5.562166
1.859029 -0.513093 5.559840
1.919362 -0.520321 5.577070
-1.212873 -0.448846 4.718440
-1.100189 -0.505771 4.741422
-1.093605 -0.512763 4.742693
1.099356 -0.588555 4.887273
2.020837 -0.680369 5.572412
-1.038262 -0.609802 4.757100
-1.097344 -0.625589 4.736822
1.556076 -0.663842 5.000334
1.219423 -0.661865 4.907011
1.658590 0.630761 -4.103297
0.888979 -0.654955 4.821930
0.549863 -0.651290 4.730666
0.201212 -0.645476 4.636739
-1.083412 -0.660477 4.728545
-4.492098 -4.733050 23.554746
-1.113189 -0.749895 4.716884
-1.204380 -0.752765 4.692573
-1.101748 -0.898125 4.711997
-1.101748 -0.898125 4.711997
-1.178648 -0.893007 4.685082
-1.115770 -0.906615 4.706264
-1.119581 -0.925641 4.693794
-1.119581 -0.925641 4.693794
2.577401 -1.199778 5.668210
2.147897 -1.193634 5.571765
-0.610724 -0.935731 4.363496
-1.074679 -1.021760 4.698206
-1.093602 -1.032468 4.699103
-0.578209 -1.009744 4.368928
-1.051503 -1.128998 4.693629
-1.041971 -1.133814 4.696487
0.622493 -0.078848 -1.163860
4.006296 1.937658 -7.376582
3.955978 1.906176 -7.250033
-1.125153 -1.147714 4.674509
0.058807 -0.919909 3.708298
1.024106 -0.963004 3.784380
0.545135 0.038594 -0.966906
1.959927 -1.291040 5.032250
2.093406 -1.164139 3.857268
1.061058 -1.195075 3.708231
1.061058 -1.195075 3.708231
-0.544165 -1.249109 3.741532
-0.544165 -1.249109 3.741532
0.951165 -1.157759 3.266733
0.951165 -1.157759 3.266733
-0.496624 -1.221583 3.355177
1.073029 -0.808064 -2.366196
0.535418 -0.272822 -1.319141
-0.366220 0.697726 3.038996
-5.030589 -4.922691 -20.704251
18.992442 12.218131 73.630596
1.175902 -0.176803 -2.003585
33.287250 53.570913 177.955225
0.635448 -0.129768 -1.233043
2.357998 2.934956 13.090967
0.533553 -0.060015 -0.878884
2.018721 1.231507 6.707815
-1.082316 1.520039 4.960331
0.594833 -0.665843 -2.078870
-1.235306 1.478060 4.918173
0.451028 -0.250927 -1.604204
-1.007142 1.496116 4.998212
-1.130488 1.466175 4.943226
-0.432665 1.512467 5.145291
-0.765067 1.462471 5.038367
-0.838427 1.456011 5.029335
-0.666682 1.460115 5.081611
0.287594 -0.454161 -1.969657
-0.602637 1.455360 5.084887
-0.541974 1.459868 5.104386
-0.541974 1.459868 5.104386
-0.705783 1.443200 5.058940
-0.685973 1.443154 5.061010
-0.611334 1.433130 5.081620
0.796390 1.434332 5.111636
0.968322 1.543518 5.532330
-1.112500 1.378514 4.944254
0.950212 1.541224 5.532055
0.283803 -0.516676 -3.327398
0.525622 -0.196104 -1.338730
-0.806662 1.394160 5.025756
-0.806662 1.394160 5.025756
1.006276 1.526135 5.542589
-1.250143 1.340656 4.886891
0.993373 1.510394 5.526018
-1.223304 1.330112 4.893009
-0.586737 1.378959 5.077021
-0.586737 1.378959 5.077021
0.227458 1.317038 4.868406
2.283548 1.596670 5.900070
2.283548 1.596670 5.900070
2.598755 1.621002 6.006046
0.557902 1.321882 4.965559
1.520335 1.494537 5.684032
0.556067 1.301398 4.965687
1.592949 1.494802 5.707974
0.431587 -0.441474 -2.007981
0.781500 -0.058840 -1.464551
1.774285 1.484249 5.752385
-1.010385 1.273271 4.945092
-0.722895 1.283749 5.040056
2.042103 1.474617 5.826308
-0.673396 1.273752 5.052238
2.082708 1.455454 5.833472
2.600600 1.474804 5.979268
-1.070152 1.204806 4.932360
-0.999869 1.202883 4.947133
1.262828 1.358634 5.590776
-0.954771 1.199556 4.964203
0.819512 -0.048565 -1.554174
-0.926461 1.190672 4.967410
-1.241086 1.158684 4.873848
-1.241086 1.158684 4.873848
1.512184 -0.070102 -2.934682
1.818613 1.344254 5.772951
-0.486600 1.159667 5.092837
-1.214921 1.104944 4.882833
1.707062 1.287825 5.707441
2.190329 1.315987 5.837767
-0.878646 1.099457 4.973130
-0.960592 1.090208 4.949491
-0.960592 1.090208 4.949491
2.286436 1.282794 5.856009
2.615724 1.288684 5.948951
-0.686286 1.079172 5.029623
-0.686286 1.079172 5.029623
-1.179786 1.042224 4.884449
-1.179786 1.042224 4.884449
-1.143098 1.040711 4.894092
-0.648251 1.068795 5.031661
1.219547 1.181031 5.567084
2.513483 2.300769 9.712226
1.277806 1.149584 5.583723
-0.842079 1.019086 4.970339
1.505235 1.145934 5.631921
1.974964 1.153618 5.769921
-1.143002 0.927439 4.879580
-0.331287 0.883609 4.700629
0.198307 0.905219 4.819636
1.278140 1.035965 5.566581
1.278140 1.035965 5.566581
0.089555 0.889945 4.791850
-1.170467 0.897764 4.876615
2.366062 1.078453 5.868298
0.533857 -0.226059 -1.113291
-1.056590 0.889683 4.913875
2.150298 1.029764 5.796629
0.734672 0.859895 4.960977
1.463752 0.969997 5.612549
1.771218 0.948501 5.685164
-1.230574 0.769304 4.842691
1.383606 0.881951 5.575606
0.139501 2.190805 13.906792
1.637948 0.890940 5.658597
0.525391 -0.093655 -1.525261
1.634608 0.873167 5.632731
2.041602 0.888916 5.755700
0.560668 0.080176 -1.007193
-0.984087 0.712809 4.900207
-1.212031 0.701383 4.839315
-1.073229 0.703417 4.877960
-1.140081 0.699901 4.868931
-1.099590 0.693715 4.861597
-0.652256 0.694534 4.983697
1.626411 0.779808 5.638844
-0.813270 0.680917 4.953130
1.329783 0.759023 5.552262
-0.827711 0.665075 4.932128
-0.827711 0.665075 4.932128
2.015188 0.752108 5.745322
2.043437 0.740999 5.719356
-1.196679 0.552500 4.842130
1.206479 0.606326 5.493718
1.281038 0.608397 5.523117
1.261616 0.606234 5.525832
-1.006664 0.533788 4.882220
1.552598 0.608907 5.585718
1.552598 0.608907 5.585718
1.607186 0.606354 5.613644
-0.972293 0.512723 4.878695
2.057310 0.592630 5.716916
0.546537 -0.206456 -1.069907
2.082910 0.575185 5.730322
2.326699 0.574816 5.794200
2.081528 0.563663 5.732062
2.336155 0.562439 5.817703
-0.755698 0.473376 4.930671
-0.257903 0.437362 4.878000
1.052262 0.442976 5.156458
1.695904 0.458984 5.617085
1.695904 0.458984 5.617085
0.539948 -0.243854 -1.090006
1.913992 0.453694 5.672140
0.947276 0.409490 5.205666
-0.251787 0.384478 4.898024
-0.805983 0.367689 4.911502
-0.664653 0.353444 4.946366
-0.664653 0.353444 4.946366
0.476971 0.311756 5.000738
1.434757 0.295181 5.527507
1.500586 0.288039 5.533775
1.782951 0.291285 5.633941
2.117098 0.267528 5.698031
-1.126255 0.222170 4.813081
-1.060415 0.220209 4.822887
-1.043833 0.220611 4.835447
1.718475 0.253215 5.590326
2.308878 0.254721 5.759066
2.308878 0.254721 5.759066
2.612441 0.250274 5.840467
-1.202579 0.202604 4.804508
-1.124319 0.201605 4.819835
0.391042 -0.175254 -1.932804
0.153924 0.179351 4.864995
0.433626 0.512908 13.695984
0.372063 0.174478 4.952045
0.111601 0.171124 4.863017
0.534747 0.130694 4.962314
2.321785 0.139517 5.739112
2.324157 0.125670 5.734593
1.805728 0.122720 5.621589
2.009379 0.120214 5.673117
2.315764 0.122127 5.749631
1.880862 0.115218 5.620777
2.304540 0.103842 5.752944
2.304540 0.103842 5.752944
0.523187 0.080320 4.954553
0.076055 0.062148 4.836039
0.424665 0.060518 4.854559
1.504130 0.063692 5.121627
0.393638 0.047222 4.862006
0.393638 0.047222 4.862006
0.302144 0.044902 4.892958
0.033378 -0.289806 13.762908
0.012938 0.042798 4.818328
0.012938 0.042798 4.818328
0.298399 -0.297700 13.766401
0.106107 0.039841 4.846393
0.143051 0.037887 4.848706
0.699060 0.032670 5.004983
2.011206 0.036596 5.654853
0.338175 0.029837 4.874945
0.356654 0.027884 4.861970
0.632388 0.026968 4.994105
0.668587 -0.119931 4.985123
0.669137 0.024993 4.998268
0.723162 -0.122090 4.999508
0.535908 0.077173 -1.025979
0.319716 -0.030243 4.943638
-0.765845 -0.042186 4.598840
0.347802 -0.060727 4.935108
1.966493 -0.076915 5.620429
1.966493 -0.076915 5.620429
-0.276967 -0.080948 4.761596
0.740398 0.148384 -1.486104
-0.364913 -0.101780 4.806792
0.996687 -0.109115 5.126256
0.153659 -0.107485 4.845061
-0.258240 -0.105728 4.767182
0.111279 -0.116459 4.834684
-0.140385 -0.136166 4.874787
-0.140385 -0.136166 4.874787
1.935930 -0.161341 5.614230
-1.193168 -0.159269 4.761708
-1.135109 -0.162371 4.771595
1.108314 -0.186392 5.214148
1.108314 -0.186392 5.214148
1.108314 -0.186392 5.214148
-1.029234 -0.174415 4.810158
-0.982867 -0.176413 4.813570
0.384402 -0.174851 4.744867
0.380342 -0.190363 4.737065
1.644293 -0.257650 5.522714
0.371872 -0.246427 4.759908
0.371872 -0.246427 4.759908
0.142777 -0.252910 4.828792
0.142777 -0.252910 4.828792
0.049744 -0.251327 4.800786
0.037483 -0.707698 13.605827
0.037483 -0.707698 13.605827
0.105790 -0.253991 4.817770
0.105790 -0.253991 4.817770
0.632119 -0.266589 4.961125
0.759287 -0.270224 4.993447
0.722609 -0.269991 4.990081
0.722609 -0.269991 4.990081
0.437144 -0.742691 13.611920
1.008215 -0.293324 5.184729
0.188576 -0.279818 4.836089
-1.062080 -0.294978 4.778033
-1.013013 -0.297574 4.791652
1.141482 -0.356418 5.209613
-0.687850 -0.316943 4.591738
0.581224 0.239985 -3.601708
1.414241 -0.358331 5.157804
1.925475 -0.399027 5.583315
2.389107 -0.424802 5.714660
2.389107 -0.424802 5.714660
2.178221 -0.430630 5.635167
0.565351 -0.181117 2.064456
0.182095 -0.416392 4.755341
-0.017658 -0.414202 4.716560
-0.038953 -0.422662 4.813434
1.369037 -0.459475 5.191660
-1.129632 -0.431762 4.749424
1.387930 -0.462677 5.088453
0.176328 -0.440928 4.738797
-1.194879 -0.459609 4.714930
-1.191364 -0.472409 4.714579
-1.080933 -0.515759 4.754999
2.066896 -0.621625 5.587836
-0.435706 -0.501647 4.464765
1.564484 -0.564177 5.004173
1.338314 -0.561900 4.945722
1.627182 -0.582616 5.024161
1.627182 -0.582616 5.024161
0.188348 -0.319987 2.724834
1.155354 -0.575235 4.891926
1.085025 -0.574108 4.886585
0.747733 -0.568504 4.790456
0.619008 0.436828 -3.710784
-0.732905 -0.528929 4.393939
1.140928 -0.590493 4.890866
-0.790310 -0.530824 4.368014
2.190509 -0.684001 5.624396
0.420721 -0.577328 4.705475
0.464724 -0.578356 4.702122
0.074645 -0.571655 4.605232
0.074645 -0.571655 4.605232
-0.796200 -0.542382 4.365602
1.124043 -0.610810 4.909958
0.116618 -0.574315 4.615177
-0.143558 -0.565388 4.539235
-0.271782 -0.566507 4.510552
-0.271782 -0.566507 4.510552
1.279524 1.210757 -9.665284
1.279524 1.210757 -9.665284
-0.629883 -0.561124 4.408574
-0.629883 -0.561124 4.408574
1.544711 -0.650498 5.010449
-1.204921 -0.611253 4.701118
1.210289 -0.646581 4.913289
0.876300 -0.639524 4.819472
0.535775 -0.637615 4.727383
0.726818 -0.488211 3.583023
0.925735 -0.656456 4.822258
0.189245 -0.631737 4.631786
0.002891 -0.627269 4.578493
0.646029 -0.653472 4.757087
1.240024 -0.849635 9.834194
-0.154904 -0.626343 4.535010
-1.110935 -0.653836 4.728989
0.337726 -0.647781 4.665620
0.301688 -0.648507 4.657356
0.239927 -0.645419 4.638109
-0.344723 -0.623401 4.481831
-0.510472 -0.621872 4.440128
-0.008693 -0.641730 4.570963
-0.705680 -0.618366 4.383326
-1.115344 -0.667177 4.725920
-0.141936 -0.641640 4.540886
1.008690 -0.688646 4.851338
1.873447 -0.788440 5.530615
-0.355944 -0.640059 4.479931
-0.497636 -0.635388 4.440403
1.930792 -0.794888 5.551450
-0.717789 -0.632152 4.379720
0.327081 -0.678120 4.658404
0.327081 -0.678120 4.658404
0.207803 -0.679472 4.633697
0.207803 -0.679472 4.633697
-0.018614 -0.675699 4.569357
0.718877 -0.724745 4.703480
0.551236 -0.721816 4.655019
-1.162676 -0.738858 4.709623
2.391680 -0.900604 5.656547
-1.124383 -0.757472 4.720846
2.347352 -0.929765 5.643546
2.317648 -0.932046 5.621108
2.103400 -0.925647 5.576884
2.385367 -0.940415 5.651282
-1.164983 -0.897090 4.698428
-1.134376 -0.928985 4.705695
0.916880 -0.784771 3.771790
-0.469687 -0.916659 4.405287
1.083166 -0.802550 3.813503
0.972311 -0.684097 3.922813
-0.560189 -0.952068 4.376634
2.512852 -1.240822 5.597674
-0.562229 -0.991531 4.380013
2.500041 -1.266818 5.564726
0.801875 -0.857843 3.726543
2.620292 -1.297356 5.597508
0.061493 -0.865394 3.706345
-1.200192 -1.093161 4.669916
0.589432 -0.457240 1.756051
1.197653 -0.904756 3.834960
0.441271 -1.186100 4.712608
0.333876 -0.853014 3.601755
-0.080248 -0.239809 2.464443
0.042803 -0.885090 3.715904
0.042803 -0.885090 3.715904
0.106500 -0.881432 3.683144
0.106500 -0.881432 3.683144
1.157795 -0.919625 3.822683
0.991179 -0.909084 3.778989
1.215945 -0.925172 3.835746
2.003203 -1.322659 5.425939
0.688480 -0.907131 3.697766
0.858960 -0.921062 3.734075
1.052606 -0.626900 4.355347
-0.013850 -0.925796 3.740323
-0.013850 -0.925796 3.740323
0.108979 -0.911722 3.676468
0.801699 -0.925530 3.719537
0.920074 -0.440081 2.826631
0.352456 -0.908302 3.605603
0.352456 -0.908302 3.605603
0.090562 -0.935343 3.685961
0.394933 -0.919767 3.611251
0.394933 -0.919767 3.611251
1.213044 -0.980268 3.831043
0.336109 -0.925073 3.598206
0.336109 -0.925073 3.598206
1.041207 -0.981641 3.786662
0.977232 -0.981002 3.767452
1.007887 -0.992976 3.775073
0.532172 -0.966034 3.646207
0.532172 -0.966034 3.646207
-0.734683 -1.138426 4.293191
5.925887 9.568052 -33.175135
0.336713 -0.983919 3.590807
0.535368 -1.192557 3.572004
0.535368 -1.192557 3.572004
0.558617 -0.249209 -1.339687
0.539322 -0.305688 -1.060599
-1.145340 0.714336 4.533385
0.691660 -1.445258 -4.484901
-1.197272 1.488271 4.930048
-0.030446 1.457795 4.880964
-1.126645 1.448344 4.933942
-1.126645 1.448344 4.933942
-0.741040 1.460305 5.049029
-0.741226 1.442891 5.038243
-0.576075 1.454571 5.094567
1.006453 1.558814 5.543669
1.190009 1.545831 5.593555
1.190009 1.545831 5.593555
0.804843 1.400721 5.108505
1.603731 -0.581764 -2.944992
-0.637031 1.386728 5.066816
0.528546 -0.133503 -1.032997
2.312793 1.595672 5.903730
0.285453 1.318955 4.894433
2.357167 1.591326 5.918355
2.357167 1.591326 5.918355
2.389039 1.592183 5.939058
2.389039 1.592183 5.939058
-1.115705 1.309974 4.935132
1.554759 1.498862 5.704055
-1.069301 1.292339 4.943825
1.077962 0.058215 2.692031
1.879619 1.473170 5.775037
1.236129 1.426378 5.590021
0.794876 1.247064 4.928766
2.197297 1.475312 5.863013
-0.497073 1.270699 5.103578
-0.530121 1.268642 5.084400
-1.156502 1.213551 4.904188
-1.204893 1.190750 4.905938
-0.748918 1.200884 5.019707
-0.891727 1.191265 4.973925
1.883691 1.318214 5.767024
-1.247898 1.106317 4.873401
2.118053 1.329643 5.848289
-0.439254 1.154840 5.101091
0.787625 -0.034465 -1.504444
-0.429728 1.140588 5.099069
0.551726 -0.136225 -1.165197
2.392620 1.292276 5.893027
-1.239348 1.057940 4.860963
-1.239348 1.057940 4.860963
-1.231727 1.049521 4.879640
0.413345 1.058496 4.930352
-0.970068 1.053657 4.934399
0.413970 1.038589 4.937381
-0.889301 1.025823 4.962974
-0.837807 1.007181 4.977705
0.522423 -0.004933 -0.980457
0.337360 2.633924 13.984084
0.587142 -0.024435 1.307121
-1.090464 0.892286 4.914331
0.507359 0.082121 1.207395
0.642511 0.890844 4.958170
0.742357 0.879859 4.976983
0.184415 0.851460 4.818585
0.184415 0.851460 4.818585
-0.773112 0.881189 4.981047
-0.773112 0.881189 4.981047
2.458575 1.090216 6.231653
0.706328 0.018618 1.613905
2.366410 1.022047 5.868767
0.780849 0.869085 5.003467
0.644647 0.855137 4.946333
1.441687 0.969262 5.605679
0.206896 2.402122 14.027294
-0.720722 0.850172 4.993162
0.056732 0.810829 4.791056
0.821007 0.121058 -1.374959
1.558091 0.944821 5.629845
-0.716806 0.830233 4.991401
0.699290 0.796014 4.964262
2.392585 0.921676 5.859439
1.675390 0.887072 5.646550
1.445162 0.876790 5.587338
-1.236189 0.742478 4.837401
2.215550 0.868653 5.818159
-1.218038 0.719457 4.848936
-0.934317 0.715009 4.928020
0.289430 0.710952 4.965769
-0.906228 0.696374 4.931002
-0.715542 0.692347 4.984891
-0.909346 0.682001 4.928708
-0.701167 0.681494 4.985466
0.631601 0.677373 4.967479
1.579296 0.753681 5.631191
0.234996 0.442972 3.405654
0.208928 -0.057982 2.127079
0.424370 0.658094 4.985709
-0.193087 0.610345 4.931146
0.347405 0.594804 4.969007
0.387978 0.552581 4.656049
0.283332 0.573573 4.949237
0.477303 0.565395 4.989651
-0.649497 0.522061 4.965464
-0.773561 0.518866 4.941633
-0.773561 0.518866 4.941633
0.529614 0.518314 5.004952
1.958021 0.583987 5.693230
1.958021 0.583987 5.693230
2.046641 0.576175 5.715958
0.947947 0.522899 5.220840
2.293213 0.574735 5.778708
2.245403 0.574455 5.768733
2.357164 0.573958 5.817739
2.357164 0.573958 5.817739
2.054625 0.560938 5.720683
2.378992 0.566235 5.814222
-0.191832 0.414702 4.906359
1.317299 0.452852 5.514732
1.856885 0.449301 5.667189
1.544211 0.440419 5.576219
-1.066156 0.375895 4.848311
1.851844 0.432149 5.658013
-0.880319 0.370510 4.889662
1.935648 0.427478 5.675246
-1.024113 0.361439 4.848846
-0.924686 0.361829 4.871330
-1.070546 0.359374 4.836501
0.606789 -0.156285 -1.329085
-0.829852 0.356137 4.905770
0.486721 0.320437 4.989150
-1.218402 0.276613 4.791136
1.738992 0.273211 5.610719
0.995782 0.251495 5.181966
0.037170 0.226391 4.820866
2.033151 0.257472 5.671263
0.051217 0.218005 4.826445
0.118039 0.217102 4.840768
0.118039 0.217102 4.840768
0.733751 0.195628 5.008159
0.049538 0.180838 4.832322
0.000559 0.182068 4.830015
-0.324976 0.168304 4.855680
-0.264217 0.165681 4.871241
-2.528025 -1.528132 -13.530636
2.379273 0.161337 5.767585
2.386470 0.142880 5.774825
1.007319 0.123717 5.211634
1.007319 0.123717 5.211634
0.049701 0.114396 4.835208
1.744872 0.130475 5.602810
0.626008 0.156840 -1.181365
2.388918 0.126072 5.770590
1.945103 0.117268 5.647689
0.531027 0.097369 4.944342
2.205796 0.112751 5.718644
0.725443 0.095751 5.024984
0.725443 0.095751 5.024984
2.376283 0.109147 5.755137
-0.387298 0.082735 4.822553
-0.324304 0.080107 4.847751
-0.323756 0.079953 4.839558
-0.230932 0.079063 4.879446
-0.213163 0.058990 4.877398
0.317353 0.050633 4.881261
0.081249 -0.097288 4.822792
0.921147 0.043526 5.183053
0.141674 0.121051 13.734730
0.049746 0.040076 4.829702
0.049746 0.040076 4.829702
0.946798 0.041724 5.200150
1.067239 0.038471 5.236280
2.149980 0.035888 5.685937
0.422955 -0.034100 2.026748
0.741499 -0.127387 5.000436
0.742146 0.018444 5.014108
-1.195418 -0.004112 4.763129
1.744027 -0.003377 5.573558
-0.117948 -0.019564 4.891049
-0.276230 -0.065080 4.778705
2.103761 -0.084868 5.655385
-1.157815 -0.100140 4.772181
-0.280651 -0.118321 4.766357
5.191066 -0.992303 -10.372780
-0.451402 -0.126987 4.800730
-0.430466 -0.148464 4.800099
-0.430466 -0.148464 4.800099
0.364339 -0.149805 4.775534
-0.155971 -0.154880 4.865769
0.396240 -0.161479 4.742725
-1.102828 -0.162806 4.781570
0.438847 -0.221453 2.603989
0.049811 -0.174489 4.814331
-1.189174 -0.172760 4.752682
0.726463 -0.191578 4.992239
1.679922 -0.226539 5.528110
0.435644 -0.199905 4.722344
1.293600 -0.237475 5.252703
1.293600 -0.237475 5.252703
0.392032 -0.213525 4.732775
0.224658 -0.223773 4.784492
0.077526 -0.230894 4.798846
0.696842 -0.243890 4.974091
0.265410 -0.240653 4.799753
0.231114 -0.240163 4.774177
-0.242595 -0.244897 4.836464
0.081277 -0.246079 4.813378
0.699169 -0.260400 4.990565
0.929586 -0.272866 5.175973
0.443383 -0.120423 2.234401
-0.327784 -0.261470 4.826543
-0.327784 -0.261470 4.826543
0.668120 -0.268259 4.974756
0.668120 -0.268259 4.974756
2.609801 -0.312097 5.767794
-0.261337 -0.263305 4.826886
0.740922 -0.275337 4.991586
0.407519 -0.128112 2.228595
0.178955 -0.287847 4.812501
-1.194038 -0.289435 4.745068
-1.106037 -0.294667 4.773450
-0.561257 -0.297660 4.759784
-0.998174 -0.299549 4.795447
-0.692618 -0.291131 4.601168
-0.738516 -0.290154 4.585911
-1.097645 -0.306842 4.774603
0.905336 -0.341894 5.155022
-0.467793 -0.319114 4.774297
-0.537960 -0.317641 4.752220
0.696229 -0.355803 4.969052
1.937678 -0.419166 5.583457
1.972616 -0.427858 5.584977
-0.673195 -0.355938 4.605522
-0.926851 -0.386147 4.795391
1.891168 -0.464787 5.565567
1.891168 -0.464787 5.565567
1.891168 -0.464787 5.565567
-0.632009 -0.403341 4.561500
0.639530 -0.440123 4.879432
-0.046624 -0.441184 4.709090
-0.622554 -0.428742 4.552928
0.459964 -0.528335 4.705985
1.072408 0.489946 -2.147454
2.304537 -1.902192 16.573553
2.304537 -1.902192 16.573553
0.271498 -0.543850 4.661485
1.418876 -0.580632 4.976834
0.479798 -0.335232 2.800584
0.042665 -0.412755 3.389096
1.121528 -0.592290 4.883593
-0.211727 -0.552804 4.519419
-0.286088 -0.552901 4.504096
2.438247 -0.698963 5.693611
1.935445 -0.685928 5.559167
-0.647261 -0.547561 4.407150
0.619493 -0.174597 1.220658
-0.228021 -0.569631 4.518070
-1.060657 -0.601829 4.733937
-1.153283 -0.609957 4.719855
1.366497 -0.648811 4.943769
-1.156059 -0.623354 4.717254
-1.132306 -0.625971 4.725140
1.318438 -0.665502 4.938220
1.318438 -0.665502 4.938220
-3.704653 0.095238 10.519783
1.259274 -0.662905 4.909916
0.350003 -0.633682 4.671566
0.493074 0.094248 -1.425000
0.541163 -1.188504 9.296657
0.199037 -0.468091 3.416214
-0.053300 -0.629954 4.560024
1.233047 -0.690247 4.897518
1.233047 -0.690247 4.897518
-0.046674 -0.642714 4.558757
-0.772042 -0.616783 4.363350
2.608659 -0.792828 5.719269
2.631982 -0.818120 5.733530
0.666716 -0.680863 4.756996
-0.756145 -0.633678 4.372037
0.293769 1.533327 -10.485738
-0.732225 -0.665582 4.380735
0.364864 -0.717611 4.602493
-0.053831 0.507952 -2.880015
2.433003 -0.922617 5.657319
2.433003 -0.922617 5.657319
2.634751 -0.965681 5.716918
7.738354 -29.833069 173.697428
2.225415 -0.953051 5.614534
0.784277 -0.248616 1.530895
-0.450520 -0.794047 4.389577
2.635130 -1.065100 5.682712
-1.206994 -0.893771 4.683021
2.063509 -1.081371 5.556503
-0.572764 -0.863695 4.375644
-0.687491 -0.865306 4.349191
-0.687491 -0.865306 4.349191
1.096418 -0.783160 3.806763
2.626322 -1.191187 5.689720
-0.579083 -0.935494 4.375417
-0.434662 -0.945755 4.406416
2.587943 -1.255579 5.580199
-0.495713 -0.994105 4.395629
2.480268 -1.271155 5.565595
1.027076 -0.869827 3.790109
0.991434 -0.871218 3.785164
0.991434 -0.871218 3.785164
-1.188217 -1.082450 4.676013
-1.188217 -1.082450 4.676013
2.655437 -1.298168 5.603237
-0.667182 -1.007510 4.339990
2.592877 -1.306273 5.573413
-0.493770 -1.038423 4.392273
1.140333 -0.906877 3.815238
0.531511 -0.870128 3.659580
-0.048166 -0.899513 3.772734
-0.695707 -1.039656 4.331502
-0.695707 -1.039656 4.331502
-0.695707 -1.039656 4.331502
0.352641 -0.871799 3.607088
0.327014 0.124187 -6.132108
-1.073814 -1.136330 4.694270
0.874885 -0.907575 3.738468
-0.610557 -1.071360 4.351231
0.042790 -0.918253 3.713898
0.042790 -0.918253 3.713898
0.042790 -0.918253 3.713898
1.102324 -1.750305 7.096803
0.529342 -0.907884 3.653884
0.529342 -0.907884 3.653884
0.708254 -0.919347 3.696248
0.250384 0.364644 -4.009681
0.409595 -0.906847 3.613852
0.319970 -0.903004 3.592635
0.001068 -0.940561 3.733947
0.001068 -0.940561 3.733947
0.144028 -0.934548 3.653591
0.194958 -0.964947 4.851280
-0.053610 -0.968472 3.768666
0.448801 1.145684 -4.151204
1.146154 3.005307 -10.642784
-0.696353 -1.130484 4.315982
0.564305 -0.965235 3.657428
0.161896 -3.824597 14.289687
0.707112 1.237071 -4.339024
0.192987 -0.969601 3.628509
0.054642 -1.003057 3.698825
1.665327 4.559955 -15.495937
0.596272 -0.504329 1.826433
0.692623 -0.867210 3.049206
0.692623 -0.867210 3.049206
0.685289 -0.891174 3.126760
0.685289 -0.891174 3.126760
1.287107 -1.082726 3.795787
0.221339 1.764400 -6.154633
0.221339 1.764400 -6.154633
-1.521264 -14.629082 49.874908
-0.124106 -1.162283 4.029003
-0.035447 -1.075567 3.722220
-0.035447 -1.075567 3.722220
0.175096 -8.712626 29.663039
0.019878 -1.021278 3.530765
0.179982 -1.061218 3.606976
0.175977 -1.036691 3.528450
0.801933 -1.085760 3.659631
-0.078383 -1.113480 3.710572
-0.097984 -7.255109 23.684442
0.153502 -5.544594 18.092359
0.045779 -1.102955 3.641719
0.284791 -1.086468 3.513752
0.246516 -0.568240 -2.755716
0.525319 -0.091572 -0.940037
8.980440 7.982719 44.225102
0.546969 -0.216537 -1.088553
0.541213 -0.267249 -1.112267
-1.254986 1.514706 4.917942
0.245810 0.939630 4.117246
-0.792317 1.476424 5.037165
-0.261465 1.505344 5.190074
1.065470 -0.646213 -2.086827
2.373302 1.613014 5.926538
0.399867 1.315070 4.927883
-1.136006 1.306590 4.930011
0.527286 0.192032 1.796330
0.772267 1.291315 4.932855
1.687524 1.498619 5.733670
0.654864 1.297280 4.978227
0.430297 -0.449580 -2.047299
1.725485 1.496735 5.749260
1.872106 1.495365 5.783841
-0.616658 1.293756 5.066987
1.944566 1.475778 5.800082
-0.684778 1.279635 5.042425
-1.092369 1.210223 4.919515
-1.147482 1.198343 4.904053
-1.182997 1.195735 4.903654
0.589172 -0.236817 -1.286855
-0.550305 1.186950 5.067336
-0.780909 1.170397 5.003812
-0.670396 1.164058 5.031734
1.908275 1.328770 5.765431
1.908275 1.328770 5.765431
1.237694 -0.072323 -2.447575
0.190354 1.215863 5.628843
1.170131 1.184926 5.543851
0.293921 1.045901 4.904907
-0.921280 1.034664 4.950562
-0.921280 1.034664 4.950562
0.426148 0.829251 3.980770
0.660743 1.027976 5.003363
1.486273 1.158387 5.637832
-0.796892 0.990085 4.981511
-1.114967 0.934333 4.896279
-1.181392 0.925311 4.877498
-1.104404 0.903744 4.912650
2.140001 1.067982 5.814630
0.633619 0.907569 4.945544
-0.680659 0.913425 5.003886
0.103717 0.864066 4.803391
-0.667851 0.895216 5.003209
1.070429 0.091187 2.489612
1.068537 0.090085 2.459431
2.394200 1.021339 5.874232
1.357082 0.963865 5.575249
1.545619 0.960452 5.629259
1.367984 0.944094 5.578451
0.134280 0.803654 4.832898
1.787163 0.933661 5.696590
1.576835 0.893231 5.623595
2.235125 0.919684 5.819845
2.235125 0.919684 5.819845
0.702313 0.786212 4.998931
2.435826 0.923653 5.876838
1.780934 0.894914 5.702492
0.776803 0.755918 4.998956
0.579261 0.751082 5.045962
0.579261 0.751082 5.045962
-0.720415 0.736204 4.980449
-1.116787 0.708856 4.867438
0.493661 0.724100 5.012076
0.493661 0.724100 5.012076
0.534642 -0.143333 -1.112765
1.816758 -0.465720 -3.751077
-0.608010 0.693657 5.021686
0.533226 -0.121700 -1.106288
-0.124139 0.666413 4.955894
-1.159648 0.591823 4.840953
4.700105 0.675579 -8.368240
0.350262 0.571761 4.958284
0.315785 0.490514 4.492065
0.409960 0.568551 4.984169
4.757269 0.722663 -8.491224
0.312494 0.596578 5.245904
0.279772 0.508438 4.726165
1.696753 0.803317 7.223768
0.464934 0.545915 4.992422
0.867160 0.559908 5.224204
0.536570 -0.213859 -1.104749
1.361698 0.582536 5.533851
1.901023 0.594253 5.689310
0.246941 0.513873 4.936466
1.471330 0.493590 3.935631
1.960827 0.561189 5.689275
0.197987 0.464387 4.918111
0.562652 0.451596 5.006696
1.556885 0.457705 5.578474
1.556885 0.457705 5.578474
-1.227253 0.385564 4.811413
-1.097560 0.371271 4.839506
-1.097560 0.371271 4.839506
1.488155 0.301464 5.532434
-0.286848 0.255392 4.863177
1.700251 0.276590 5.610468
2.033036 0.256426 5.670809
-1.176154 0.209784 4.796219
2.326427 0.250042 5.766436
0.995543 0.212781 5.180349
0.667174 0.195909 4.998642
-0.122266 0.160608 4.913955
0.622270 0.160179 4.986631
-0.711617 0.134951 4.528361
-0.294674 0.118709 4.850988
0.107870 0.110887 4.851266
0.666671 0.098828 5.021361
0.666671 0.098828 5.021361
2.113886 0.103198 5.688848
2.113886 0.103198 5.688848
1.923554 0.095157 5.644404
1.921224 0.094898 5.631584
1.493918 0.081609 5.131324
-0.256210 0.077982 4.855401
0.982975 0.060592 5.212224
0.366457 0.043069 4.852225
0.946786 0.041842 5.210444
0.030441 0.035913 4.823850
0.087101 0.111858 13.758543
-1.102083 0.006539 4.785058
-1.172920 -0.009428 4.769912
-0.315595 -0.016468 4.823316
-0.237591 -0.035035 4.837326
-0.346281 -0.036830 4.812985
1.000910 -0.047966 5.177389
0.295357 -0.124307 13.694313
0.721600 -0.060967 5.009651
0.670947 -0.062185 4.983947
-0.368581 -0.073537 4.809033
0.910239 -0.101080 5.152303
0.428634 -0.309719 13.669508
0.012625 -0.305491 13.667071
-0.367161 -0.115634 4.813632
-0.367161 -0.115634 4.813632
0.767858 -0.127758 5.014904
0.624252 -0.124393 4.971128
1.977442 -0.145362 5.622392
0.670033 -0.128513 4.990067
1.744054 -0.146051 5.573233
0.908173 -0.145287 5.161479
0.908173 -0.145287 5.161479
-1.153560 -0.135473 4.769087
-1.153560 -0.135473 4.769087
-0.239119 -0.151952 4.835696
-0.349482 -0.151660 4.810936
1.201985 -0.170689 5.251974
0.923332 -0.182239 5.162357
0.109304 -0.175802 4.822810
-0.632553 -0.191722 4.737452
0.417913 -0.205349 4.734648
0.417913 -0.205349 4.734648
1.932519 -0.273517 5.604029
1.932519 -0.273517 5.604029
-0.348898 -0.239120 4.827989
0.335097 -0.254329 4.751947
0.124920 -0.258973 4.814707
0.124920 -0.258973 4.814707
0.032309 -0.256065 4.794359
0.494064 -0.268517 4.824372
0.577208 -0.279960 4.952617
0.476192 -0.285205 4.820249
-0.947136 -0.292119 4.800921
-0.947136 -0.292119 4.800921
-0.947136 -0.292119 4.800921
0.860551 0.341584 -1.699863
-1.176162 -0.306061 4.749271
0.553653 -0.097482 -1.007379
2.024107 -0.389572 5.626913
0.102081 -0.338276 4.804439
0.423878 -0.214987 3.025274
0.077751 -0.339326 4.807573
0.077751 -0.339326 4.807573
0.671646 -0.353456 4.960396
1.065295 0.447044 -2.118669
2.173343 -0.447684 5.643683
0.812454 -0.431727 4.963692
1.068279 0.464093 -2.131692
1.780023 -0.524200 5.533430
1.014469 0.448172 -2.027371
2.168769 -0.606647 5.620976
1.284996 -0.561645 4.933707
1.342738 -0.578616 4.942203
0.404416 -0.562014 4.694480
0.467703 0.647298 -5.531696
-0.022027 -0.554944 4.577952
2.372838 -0.689974 5.680309
0.540778 -0.885086 7.289581
0.079126 -0.326319 2.670800
0.136638 -0.560090 4.613495
-0.290266 -0.555464 4.518212
-0.565710 -0.547809 4.418880
-0.248906 -0.569632 4.510702
-1.188307 -0.608824 4.716280
-1.036180 -0.623215 4.747565
-0.076147 -0.473036 3.323509
-0.104214 -0.644637 4.546759
-0.457768 -0.639612 4.443994
-0.374546 -0.665922 4.469576
-0.100620 0.308775 -3.105538
1.198610 -0.772594 4.740208
0.507138 0.323002 -1.355839
2.627099 -0.940079 5.709286
2.627099 -0.940079 5.709286
0.505768 -0.065475 -1.244325
1.177853 -0.674834 3.998999
7.738354 -29.833069 173.697428
0.843084 -0.639008 3.711776
2.557511 -0.984550 5.524925
1.718203 -0.084585 3.073791
2.647289 -1.101489 5.699307
2.291403 -1.186711 5.606735
0.094784 -0.793114 3.693676
-0.495197 -0.971663 4.390760
-1.053545 -1.055785 4.710179
2.480268 -1.271155 5.565595
-1.878024 -0.844693 6.312969
0.184875 -0.848196 3.649631
-0.081088 -0.884039 3.779130
0.698057 0.024696 -2.135650
-1.181704 -1.097085 4.676952
1.943056 -1.275386 5.411893
1.943056 -1.275386 5.411893
-0.764192 -1.031791 4.310569
1.028965 -0.905437 3.772032
0.578091 0.120674 -1.277545
-0.568881 -1.073914 4.357897
0.171321 -0.913251 3.642923
0.535841 -0.020067 -0.941283
-0.693784 -1.128810 4.309729
-0.016653 -0.981614 3.747148
2.403258 -1.227826 4.677782
5.499643 -47.015927 187.238070
1.272815 -1.040506 3.835525
0.094323 -1.002903 3.677207
1.167771 -1.050273 3.792401
1.167771 -1.050273 3.792401
1.137747 -1.054405 3.797712
1.137747 -1.054405 3.797712
0.862335 -1.052438 3.714090
0.862335 -1.052438 3.714090
0.783909 -1.050672 3.686889
0.783909 -1.050672 3.686889
0.697059 -1.052199 3.665934
0.697059 -1.052199 3.665934
1.074388 -1.082575 3.735433
1.562345 -2.936353 10.182904
0.859887 -1.620020 5.602793
0.481256 -1.014604 3.478735
0.806419 -1.692937 5.832831
0.967790 -1.081613 3.700569
0.555031 -0.069545 2.875290
0.154358 -1.062529 3.618212
0.817739 -2.350399 8.019441
-0.696055 -1.255339 4.256504
0.839190 -1.084935 3.665980
0.010440 -1.025985 3.417000
0.133642 -1.095607 3.590735
0.159140 -1.095509 3.579861
1.945718 -1.946820 7.811422
1.292534 -0.191431 -2.433450
1.234801 -0.172213 -2.335324
0.157106 -0.432872 -2.745349
0.534034 -0.262132 -1.101216
1.190472 -0.154886 -2.262262
0.761675 0.142761 1.868177
0.144831 1.324882 4.814597
0.144831 1.324882 4.814597
-0.956444 3.196503 21.067783
1.241590 1.533283 5.616166
1.241590 1.533283 5.616166
2.553844 2.461540 11.269053
1.293378 1.529001 5.637823
1.253533 1.503979 5.605725
0.718667 1.323121 4.933816
-0.036105 1.258843 4.741313
0.564734 1.311507 4.962894
2.593646 1.577412 5.993816
-0.117482 1.247282 4.772404
0.582067 1.292158 4.972733
0.582067 1.292158 4.972733
1.801400 1.497830 5.765979
1.848092 1.492826 5.767958
1.848092 1.492826 5.767958
1.931724 1.503831 5.818400
-1.232030 1.225375 4.893644
-1.232030 1.225375 4.893644
-0.467481 1.268938 5.103647
-1.190140 1.214246 4.895995
2.587126 1.445831 5.962836
-0.863214 1.182222 4.976533
-0.863214 1.182222 4.976533
-0.721269 1.192789 5.030175
1.027583 -0.072938 -2.013440
-0.686422 1.191942 5.042007
-0.846442 1.166518 4.994698
0.068883 1.056385 4.832368
0.210899 1.052067 4.876194
-1.196652 1.048009 4.880823
0.460531 1.043193 4.956554
1.183108 -0.045560 -2.128891
-0.811568 1.011020 4.982308
1.769139 1.140046 5.706480
-1.132421 0.954615 4.894665
0.799054 0.975737 5.028473
-0.135012 0.925351 4.872239
0.098002 0.898203 4.783497
0.098002 0.898203 4.783497
-0.623355 0.905241 5.024897
0.690096 0.879873 4.965220
0.455037 2.509484 14.173019
0.688832 -1.542411 -8.658850
0.072806 0.807012 4.819772
0.042836 0.786067 4.791699
1.121457 0.805918 5.117555
0.671897 0.763768 4.973962
-0.957759 0.694598 4.911554
0.539162 0.697061 5.012570
0.539162 0.697061 5.012570
-0.849940 0.664361 4.936852
1.866619 0.094733 -3.426663
0.190070 0.570402 4.902085
0.402746 0.605412 5.298537
0.436044 0.561437 4.993944
0.574612 0.560016 5.018007
-0.957342 0.527973 4.892447
0.511155 0.504237 5.001144
0.230900 0.491108 4.939198
0.541681 0.453552 5.014419
0.168532 0.413648 4.886375
-0.023908 0.387831 4.761052
-0.001495 0.369618 4.757402
-0.948401 0.365732 4.884199
0.597765 0.366961 4.936206
0.565777 0.346920 4.938069
-1.096643 0.276504 4.828269
0.557680 -0.193556 -1.202501
0.537387 -0.159222 -1.093221
1.720278 0.286479 5.602871
1.720278 0.286479 5.602871
2.096729 0.115974 -3.955892
0.657527 0.215006 4.994514
0.088138 0.211295 4.836983
0.975107 0.201819 5.191449
0.703382 0.194338 5.011472
-1.044512 0.182682 4.822428
-0.705126 0.141516 4.507962
-0.288026 0.097260 4.857482
2.310285 0.112274 5.741306
1.780483 0.052314 5.605933
-1.032484 0.030472 4.816133
1.255783 0.198174 -2.389875
-0.295015 -0.027791 4.830369
-0.295015 -0.027791 4.830369
-0.319557 -0.039512 4.804870
-0.319557 -0.039512 4.804870
0.150699 -0.125384 13.631200
0.106041 -0.114747 4.835565
0.049713 -0.115655 4.810438
0.142254 -0.320019 13.744222
0.722955 -0.125611 5.005987
1.954218 -0.159166 5.637598
0.406753 -0.137991 4.765411
1.133759 -0.167350 5.209580
1.133759 -0.167350 5.209580
0.365374 -0.168824 4.765909
0.453886 -0.182156 4.734378
-0.990712 -0.195335 4.809391
1.663090 -0.239562 5.545445
2.134668 0.311769 -4.048598
0.426215 -0.225180 4.731309
1.877190 -0.273047 5.596489
2.632570 -0.288284 5.781133
0.489076 -0.244969 4.826970
-1.175109 -0.286418 4.751954
-1.134832 -0.288439 4.756369
0.601151 -0.318373 4.942748
0.077757 -0.335105 4.807806
0.077757 -0.335105 4.807806
0.051484 -0.337594 4.794585
2.079081 -0.442709 5.615564
2.125772 -0.505145 5.615160
2.125772 -0.505145 5.615160
0.492888 0.280383 -1.383700
2.153769 -0.527065 5.624472
1.982358 -0.527107 5.589426
2.127429 -0.550097 5.614075
2.127429 -0.550097 5.614075
2.076094 -0.599708 5.607243
0.542153 0.123562 -1.024169
-0.426464 -0.533383 4.469880
0.321339 -0.563222 4.673804
2.267148 -0.158910 4.839102
-0.732619 -0.546937 4.392249
-1.080442 -0.588676 4.737914
2.625456 -0.712218 5.714846
1.991925 0.049138 4.041718
-0.426617 -0.624209 4.455056
-1.140514 -0.745795 4.716732
2.598545 -0.908623 5.705668
0.486001 0.138904 3.417792
1.939618 0.606991 -3.549155
0.844123 -0.778746 4.717585
-0.418048 -0.746069 4.382665
-0.522900 -0.769187 4.369732
0.345531 -0.634974 3.573926
1.372665 -0.525422 -7.817334
2.652351 -1.038332 5.679202
2.054444 -0.636996 3.866101
-0.213477 -1.079778 5.512758
-0.213477 -1.079778 5.512758
-0.160401 -1.034572 5.275548
0.017840 -0.879297 4.479009
0.017840 -0.879297 4.479009
0.213873 -0.708889 3.602937
0.265252 -0.705664 3.573960
2.640934 -1.133625 5.694481
-1.130396 -0.948466 4.696190
-2.733577 -0.386298 9.049506
-0.471073 -1.035564 4.388291
-1.151125 -1.106083 4.669884
-1.179156 -1.115168 4.666918
-0.406541 -1.150070 4.344319
-0.437463 -1.174215 4.338992
1.253515 -1.079942 3.781611
1.220481 -1.080008 3.772718
0.274500 -1.042959 3.561018
-0.696055 -1.255339 4.256504
1.132365 -1.588573 5.364788
0.747313 -1.083868 3.638970
0.230897 -1.091635 3.546256
0.871660 -1.496152 4.402354
2.785578 1.620974 6.513949
0.647080 -0.219691 -1.232830
-0.076134 1.270749 4.777458
0.374807 1.307824 4.926539
0.468840 1.293103 4.921269
1.649810 1.499711 5.718680
1.649810 1.499711 5.718680
-0.299775 1.246003 4.837421
2.002470 1.508576 5.833857
2.002470 1.508576 5.833857
-0.381541 1.257337 5.092648
0.132015 1.235785 5.666757
-1.216065 1.050714 4.866644
0.251825 1.050895 4.883534
0.489160 1.041274 4.955318
0.758063 1.026973 5.023285
0.065204 0.901698 4.788817
2.588492 1.084446 5.924309
1.608167 0.925905 5.633405
1.608167 0.925905 5.633405
0.061925 0.740102 4.785371
0.080893 1.878918 14.016501
0.397406 0.065005 -1.459620
-1.157510 0.564605 4.846861
0.270409 0.533867 4.940944
0.487572 0.528324 5.002065
0.523347 0.480003 5.013537
0.523347 0.480003 5.013537
2.295888 0.544917 5.774846
0.197255 0.432754 4.940624
0.432254 0.220525 4.965178
0.429607 0.099339 3.060843
1.455140 0.105039 5.132691
1.852782 0.091154 5.609638
-0.713819 0.050248 4.563947
-1.061579 0.009791 4.805746
-1.059190 -0.019696 4.802936
-1.119647 -0.022774 4.793567
-3.891790 1.338080 12.505707
9.559626 -1.949579 -20.419435
0.302139 -0.250454 4.775462
0.287146 -0.281229 4.784902
0.529677 0.050609 -1.071264
2.512244 -0.449235 5.562394
-0.755861 -0.336869 4.570429
2.064344 -0.414088 5.619839
-0.654340 -0.378112 4.613907
2.098111 -0.525501 5.606461
2.228134 -0.557853 5.953902
1.578828 -0.496427 5.151717
0.582903 -0.300259 2.284691
0.582903 -0.300259 2.284691
0.906604 -0.514898 4.908249
0.906604 -0.514898 4.908249
-0.107178 -0.504826 4.747407
0.307144 1.864547 -13.848554
-0.216338 -0.505545 4.726718
-0.216338 -0.505545 4.726718
2.608355 -0.620945 5.750317
-0.603905 -0.491396 4.512533
-0.603905 -0.491396 4.512533
1.312119 -0.539412 4.934877
1.266220 -0.539026 4.937227
2.234716 -0.465721 4.466139
-0.740248 -0.504497 4.380800
1.377301 -0.591330 4.956985
-0.111214 -0.545259 4.561538
0.184060 -0.567498 4.628979
-0.161676 -0.562321 4.539874
0.348306 -0.641929 4.671478
0.348306 -0.641929 4.671478
0.189231 -0.638245 4.631394
-0.113117 -0.464712 3.312807
-0.511978 -0.629731 4.439268
-1.175180 -0.668898 4.704916
2.651017 -0.983568 5.676306
0.235113 1.043163 -5.991431
1.971053 -0.456111 3.653245
2.646642 -1.179013 5.684546
2.633085 -1.221171 5.650994
-1.117217 -1.045404 4.698105
-0.028866 -0.966663 3.753096
-0.444726 -1.250671 4.332364
1.288256 -1.348097 4.649511
0.314143 -1.061036 3.528258
0.366610 -1.086348 3.541281
0.330837 -1.084024 3.529230
2.602795 1.836461 6.161020
-0.600150 1.540634 5.093717
-0.600150 1.540634 5.093717
1.200460 -0.125240 -1.992734
2.251661 0.483864 4.794850
0.225982 -0.063866 -1.737230
2.575304 1.333072 5.950071
2.601697 0.944744 5.948724
0.065281 0.735563 4.768068
0.645465 0.735321 4.992593
0.715842 -0.123328 -1.349123
0.879284 0.058093 -1.697047
-0.334768 0.485311 4.787269
1.101556 -0.225754 -2.095593
1.609825 -0.470632 -3.186770
-0.409726 0.409909 4.588100
0.529822 -0.005052 -1.073368
0.553014 0.428363 5.018103
-0.460688 0.408803 4.745899
2.465448 0.624822 5.529062
-0.471698 0.319505 4.583656
0.327863 0.365495 4.967836
0.336009 0.302503 4.952205
0.839657 0.222174 -1.582447
-1.106751 0.217390 4.826899
-1.089187 0.182112 4.818984
0.090209 0.182841 4.850748
0.405030 0.157264 4.916341
0.375331 0.092615 4.945601
-1.081748 0.037579 4.794695
-1.147585 0.005090 4.779616
2.628593 -0.149704 5.871237
1.867519 -0.108665 5.592307
1.453917 -0.121184 5.220538
-0.138338 -0.148021 4.865433
2.626746 -0.281619 5.745532
0.287149 -0.282947 4.784629
1.456013 -0.370609 5.180030
2.599275 -0.502703 5.762685
-1.179815 -0.452422 4.729864
1.539255 -0.523575 5.094823
1.329060 -0.522779 5.088844
1.394620 -0.520038 5.039191
-0.546010 -0.483949 4.520565
-0.056102 -0.517542 4.650321
0.425199 -0.535929 4.698676
0.541887 -0.117216 -0.999292
1.533347 -0.590422 5.020912
1.184918 -0.584259 4.911593
1.610468 -0.664071 5.017377
0.546709 -0.002204 -1.046702
-0.763177 -0.818016 4.331400
2.425584 -1.181496 5.649519
0.277692 -1.062420 3.519965
0.299418 -1.085657 3.520272
2.031504 0.538738 4.200567
1.881876 0.249784 3.584076
0.222099 1.211732 4.821089
0.330531 1.203965 4.849625
0.442380 1.198243 4.880564
0.551885 1.196026 4.925574
0.663978 1.187475 4.949466
0.782434 1.183775 4.983745
0.177239 0.915269 4.816705
-1.119443 0.916232 4.892778
-1.119443 0.916232 4.892778
0.223219 0.899869 4.829992
0.606901 0.894086 4.989464
2.578775 0.861342 5.891999
-0.146342 0.458907 4.931542
1.072206 0.421815 5.153000
2.587732 0.345456 5.852375
2.405650 0.550137 5.329679
-1.217375 0.176083 4.787506
2.590091 0.198706 5.828205
0.457498 -0.073191 4.923186
0.720193 -0.012976 -1.354449
-0.483129 -0.245538 4.771559
1.180556 -0.290232 5.240915
2.125833 -0.476691 5.631543
-0.631897 -0.455380 4.549053
2.126327 -0.576450 5.616516
2.126327 -0.576450 5.616516
2.126327 -0.576450 5.616516
-0.768521 -0.536015 4.379130
1.557504 -0.625645 4.999097
1.293693 -0.660536 4.925760
2.603728 -0.854681 5.735288
1.157331 -0.763834 4.811400
1.157331 -0.763834 4.811400
1.029333 -0.759257 4.775784
1.029333 -0.759257 4.775784
1.048350 -0.942744 5.883180
0.626648 -0.566012 3.516340
0.164124 -0.746287 4.539030
0.089182 -0.812492 4.941800
0.122824 -1.116498 6.809949
2.611838 -0.976119 5.703040
-0.480534 -0.936776 4.402347
0.890732 -1.086553 3.681416
0.739350 -1.160170 3.507336
1.748017 0.083247 -2.882938
2.565888 1.146560 5.932153
0.387894 0.711413 4.982528
0.350995 0.414269 4.991749
0.380677 0.320938 4.950681
0.426445 0.273403 4.961562
-0.290373 0.229310 4.893863
-0.290373 0.229310 4.893863
2.546510 0.127287 5.743456
0.410191 0.057214 4.850355
1.806676 -0.206190 5.560698
0.990029 -0.199015 5.198212
1.056145 0.027509 -1.902645
0.688443 -0.755768 4.705052
0.688443 -0.755768 4.705052
0.513398 -0.751355 4.633214
0.402668 -0.751033 4.615122
0.338463 -0.751739 4.606106
0.267756 -0.747579 4.567171
0.211513 -0.965119 3.608463
0.382678 -1.099990 3.546315
2.666302 1.829187 6.365848
2.580205 1.199928 6.012738
2.578537 1.155452 5.976334
-0.070894 0.331366 4.930166
1.347585 0.229877 -2.553864
-0.296277 -0.063465 4.794880
0.990029 -0.199015 5.198212
2.455583 -1.228822 5.591844
-0.647656 -1.141331 4.324757
1.400277 0.316465 2.765104
1.400277 0.316465 2.765104
-0.093148 0.897201 4.905876
0.828333 0.798249 5.058390
0.734530 0.695258 4.969114
0.620667 0.313690 5.005148
0.620667 0.313690 5.005148
2.252265 0.531522 4.936240
-0.281165 -0.156966 4.835638
0.263200 -0.202429 4.987868
0.666818 -0.102906 1.348946
0.727461 0.029534 1.416066
1.388474 -0.094132 2.681354
1.227751 -0.351574 2.736431
0.667780 -0.138398 1.347097
0.828037 0.249308 -1.703557
-0.159112 1.416472 4.976511
-0.214422 0.849666 4.799104
0.569960 0.863120 4.966494
0.569960 0.863120 4.966494
0.716735 0.539608 4.968915
0.716735 0.539608 4.968915
1.045303 -0.070098 2.267505
0.115145 0.432091 4.881586
0.243757 -1.044789 3.564890
1.031698 -0.015251 2.210338
0.528627 0.312817 4.974875
0.262345 0.280868 4.951813
0.393792 -0.302672 4.816436
-0.628775 -0.688352 4.389973
0.317630 -0.706678 3.566316
-0.249460 1.245396 4.977060
0.903782 1.165257 5.133126
0.903782 1.165257 5.133126
1.065175 -0.161282 2.392981
0.410492 0.129918 4.896239
1.022000 -0.206372 2.297274
-0.725483 -0.041873 4.748281
