ply
format ascii 1.0
element vertex 14
property float x
property float y
property float z
element face 0
property list uchar int vertex_index
end_header
0.000000 0.000000 10000.000000
0.000000 0.000000 7500.000000
2500.000000 0.000000 7500.000000
-2500.000000 0.000000 7500.000000
0.000000 2500.000000 7500.000000
0.000000 -2500.000000 7500.000000
2500.000000 2500.000000 7500.000000
2500.000000 -2500.000000 7500.000000
-2500.000000 2500.000000 7500.000000
-2500.000000 2500.000000 7500.000000
-2500.000000 -2500.000000 7500.000000
-2500.000000 0.000000 10000.000000
-2500.000000 -2500.000000 10000.000000
-2500.000000 2500.000000 10000.000000
