ply
format ascii 1.0
element vertex 14
property float x
property float y
property float z
element face 0
property list uchar int vertex_index
end_header
-0.000000 -0.000000 10000.000000
-0.000000 -0.000000 7500.000000
2499.062477 0.000000 7500.187505
-2499.249925 -0.000000 7500.750075
-0.150001 2499.512497 7500.187501
-0.150001 -2499.512497 7500.187501
2499.007325 2499.448514 7500.286773
2499.007325 -2499.448514 7500.286773
-2499.249925 2499.249925 7500.750075
-2499.249925 2499.249925 7500.750075
-2499.249925 -2499.249925 7500.750075
-2500.000000 -0.000000 10000.000000
-2499.812570 -2499.512487 9999.850048
-2499.812570 2499.512487 9999.850048
