ply
format ascii 1.0
element vertex 14
property float x
property float y
property float z
element face 0
property list uchar int vertex_index
end_header
1.306563 -0.000000 0.000341
1.306651 -0.000000 0.000308
1.633298 -0.000000 0.000308
0.980020 -0.000000 0.000309
1.306650 0.326614 0.000309
1.306650 -0.326614 0.000309
1.633298 0.326657 0.000308
1.633298 -0.326657 0.000308
0.980025 0.326647 0.000309
0.980025 0.326647 0.000309
0.980025 -0.326647 0.000309
0.979844 -0.000000 0.000341
0.979845 -0.326509 0.000341
0.979845 0.326509 0.000341
