ply
format ascii 1.0
element vertex 14
property float x
property float y
property float z
element face 0
property list uchar int vertex_index
end_header
-0.507479 -0.000000 9999.936330
-0.254760 0.000000 7499.566638
2500.142758 0.000000 7499.861058
-2500.439010 -0.000000 7500.004799
-0.438988 2500.000000 7499.561012
-0.438988 -2500.000000 7499.561012
2500.103173 2500.210248 7499.859553
2500.103173 -2500.210248 7499.859553
-2500.425104 2500.329431 7500.004799
-2500.425104 2500.329431 7500.004799
-2500.425104 -2500.329431 7500.004799
-2501.040518 -0.000000 9999.936330
-2501.222925 -2499.866204 9999.856780
-2501.222925 2499.866204 9999.856780
