ply
format ascii 1.0
element vertex 14
property float x
property float y
property float z
element face 0
property list uchar int vertex_index
end_header
-1.306563 0.000000 -1.847759
-1.306651 0.000000 -1.521096
-1.633298 0.000000 -1.521100
-0.980020 0.000000 -1.521216
-1.306650 -0.326614 -1.521102
-1.306650 0.326614 -1.521102
-1.633298 -0.326657 -1.521100
-1.633298 0.326657 -1.521100
-0.980025 -0.326647 -1.521198
-0.980025 -0.326647 -1.521198
-0.980025 0.326647 -1.521198
-0.979844 0.000000 -1.847759
-0.979845 0.326509 -1.847756
-0.979845 -0.326509 -1.847756
