ply
format ascii 1.0
element vertex 14
property float x
property float y
property float z
element face 0
property list uchar int vertex_index
end_header
0.000000 -0.000000 0.707107
0.000000 0.000000 0.530330
0.176710 0.000000 0.530343
-0.176724 0.000000 0.530383
-0.000011 0.176742 0.530343
-0.000011 -0.176742 0.530343
0.176707 0.176738 0.530350
0.176707 -0.176738 0.530350
-0.176724 0.176724 0.530383
-0.176724 0.176724 0.530383
-0.176724 -0.176724 0.530383
-0.176777 0.000000 0.707107
-0.176763 -0.176742 0.707096
-0.176763 0.176742 0.707096
